# xmcd
#
# Track frame offsets:
#	150
#	15492
#	28177
#	44200
#	59049
#	71695
#	87410
#	97876
#	113460
#	128142
#	142319
#	157309
#	177325
#	193746
#	207291
#	220558
#	233298
#	250232
#	265855
#	280683
#	298536
#	313451
#
# Disc length: 4337 seconds
#
# Revision: 0
# Processed by: cddbd v1.5.1PL0 Copyright (c) Steve Scherf et al.
# Submitted via: dBpowerAMP V4.0
#
DISCID=5210ef16
DTITLE=Viola Caipira - Viola Caipira
DYEAR=1900
DGENRE=Moda de Viola
TTITLE0=Meu reino encantado - Lourenço e Lourival
TTITLE1=Camisa branca - Duo glacial
TTITLE2=O carro e a faculdade - Trio Parada Dura
TTITLE3=Boite Azul - Joaquim e Manuel
TTITLE4=Migalhas de amor - Milionario e Jose Rico
TTITLE5=Nao se bate em uma mulher - Nilton Lamas
TTITLE6=Nosso juramento - Chico Rei e Parana
TTITLE7=Sou filho de caipira - Andre e Andrade
TTITLE8=Tributo a um amigo - Dalvan
TTITLE9=Saudade da minha terra - Belmonte e Amarai
TTITLE10=Estrela de ouro - Tiao Carreiro e Pardinho
TTITLE11=A sementinha - Lourenço e Lourival
TTITLE12=Sublime renuncia - Pery e pory
TTITLE13=Pombinha mensageira - Praiao e Prainha
TTITLE14=Ave sem ninho - Solvente e Solevy
TTITLE15=Pe de cedro - Tibagi e Miltinho
TTITLE16=Sozinho na noite - Orfeu e Menestrel
TTITLE17=O ipe e o prisioneiro - Mocaca e Paraiso
TTITLE18=Peito sadio - Ze Carreiro e Carreirinho
TTITLE19=Ultimo adeus - Trio Parada Dura
TTITLE20=Flor do ipe - Andre e Andrade
TTITLE21=Copo de cerveja - Irmas Freitas
EXTD=
EXTT0=
EXTT1=
EXTT2=
EXTT3=
EXTT4=
EXTT5=
EXTT6=
EXTT7=
EXTT8=
EXTT9=
EXTT10=
EXTT11=
EXTT12=
EXTT13=
EXTT14=
EXTT15=
EXTT16=
EXTT17=
EXTT18=
EXTT19=
EXTT20=
EXTT21=
PLAYORDER=
